<?xml version="1.0" encoding="UTF-8"?>
<svg id="Capa_1" data-name="Capa 1" xmlns="http://www.w3.org/2000/svg" viewBox="0 0 287.29 68.17">
  <defs>
    <style>
      .cls-1 {
        fill: #1a1c23;
      }
    </style>
  </defs>
  <g>
    <path class="cls-1" d="M103.92,34.45h-11.39c-2.04,0-3.7-1.66-3.7-3.7v-.6c0-2.04,1.66-3.7,3.7-3.7h19.6c.65,0,1.18-.53,1.18-1.18v-4.57c0-.65-.53-1.18-1.18-1.18h-19.59c-5.87,0-10.62,4.76-10.62,10.62v.6c0,5.87,4.76,10.62,10.62,10.62h11.23c1.88,0,3.57,1.34,3.79,3.21.27,2.22-1.47,4.12-3.64,4.12h-19.82c-.65,0-1.18.53-1.18,1.18v4.57c0,.65.53,1.18,1.18,1.18h19.48c6.3,0,11.39-5.16,10.89-11.44-.44-5.44-5-9.73-10.55-9.73Z"/>
    <path class="cls-1" d="M159.6,34.45h-11.39c-2.04,0-3.7-1.66-3.7-3.7v-.6c0-2.04,1.66-3.7,3.7-3.7h19.6c.65,0,1.18-.53,1.18-1.18v-4.57c0-.65-.53-1.18-1.18-1.18h-19.59c-5.87,0-10.62,4.76-10.62,10.62v.6c0,5.87,4.76,10.62,10.62,10.62h11.23c1.88,0,3.57,1.34,3.79,3.21.27,2.22-1.47,4.12-3.64,4.12h-19.82c-.65,0-1.18.53-1.18,1.18v4.57c0,.65.53,1.18,1.18,1.18h19.48c6.3,0,11.39-5.16,10.89-11.44-.44-5.44-5-9.73-10.55-9.73Z"/>
    <rect class="cls-1" x="122.78" y="19.53" width="6.92" height="36.09" rx="1.05" ry="1.05"/>
    <path class="cls-1" d="M174.92,26.45h13.15v28.2c0,.53.43.96.96.96h5c.53,0,.96-.43.96-.96v-28.2h13.15c.53,0,.96-.43.96-.96v-5c0-.53-.43-.96-.96-.96h-33.22c-.53,0-.96.43-.96.96v5c0,.53.43.96.96.96Z"/>
    <path class="cls-1" d="M212.92,28.82v17.5c0,5.13,4.16,9.3,9.3,9.3h25.13c.63,0,1.14-.51,1.14-1.14v-4.65c0-.63-.51-1.14-1.14-1.14h-25.13c-1.31,0-2.37-1.06-2.37-2.37v-4.95h21.9c.63,0,1.14-.51,1.14-1.14v-4.65c0-.63-.51-1.14-1.14-1.14h-21.9v-5.62c0-1.31,1.06-2.37,2.37-2.37h25.13c.63,0,1.14-.51,1.14-1.14v-4.65c0-.63-.51-1.14-1.14-1.14h-25.13c-5.13,0-9.3,4.16-9.3,9.3Z"/>
    <path class="cls-1" d="M264.8,48.7c-1.02,0-1.85-.83-1.85-1.85v-26.21c0-.61-.5-1.11-1.11-1.11h-4.71c-.61,0-1.11.5-1.11,1.11v26.21c0,4.84,3.93,8.77,8.77,8.77h15.05c.61,0,1.11-.5,1.11-1.11v-4.71c0-.61-.5-1.11-1.11-1.11h-15.05Z"/>
  </g>
  <g>
    <path class="cls-1" d="M41.2,44.18c-.3.49-.1,1.14.43,1.37,1.94.84,6.4,2.51,11.43,2.51,5.98,0,9.04-3.43,9.04-7.84,0-18.25-13.95-35.77-26.16-35.77-6.63,0-11.07,5.47-12.8,8.06-.18.26.15.57.4.39,1.68-1.21,4.86-3.15,7.83-3.15,9.51,0,13.63,10.89,13.63,20.93,0,6.6-2.61,11.57-3.82,13.51Z"/>
    <path class="cls-1" d="M40.14,31.03c.58.02,1.03-.48.97-1.06-.24-2.1-1.03-6.8-3.54-11.15-2.99-5.18-7.49-6.11-11.31-3.91C10.45,24.04,2.25,44.88,8.36,55.45c3.32,5.74,10.27,6.85,13.38,7.05.32.02.42-.41.13-.54-1.89-.85-5.16-2.63-6.65-5.21-4.76-8.24,2.62-17.25,11.31-22.27,5.72-3.3,11.33-3.52,13.61-3.45Z"/>
    <path class="cls-1" d="M29.39,38.33c-.27-.51-.93-.65-1.4-.31-1.7,1.26-5.37,4.29-7.89,8.65-2.99,5.18-1.54,9.54,2.27,11.75,15.81,9.13,37.95,5.81,44.05-4.77,3.32-5.74.79-12.32-.58-15.11-.14-.29-.57-.16-.54.16.2,2.06.3,5.78-1.19,8.36-4.76,8.24-16.25,6.36-24.94,1.34-5.72-3.3-8.71-8.05-9.79-10.06Z"/>
  </g>
</svg>